<mxfile host="app.diagrams.net" modified="2023-11-02T09:23:54.741Z" agent="Mozilla/5.0 (Windows NT 10.0; Win64; x64) AppleWebKit/537.36 (KHTML, like Gecko) Chrome/118.0.0.0 Safari/537.36" etag="mj9D0el-ATX9_bzMoqIK" version="22.0.8" type="github">
  <diagram id="C5RBs43oDa-KdzZeNtuy" name="Page-1">
    <mxGraphModel dx="2849" dy="1529" grid="0" gridSize="10" guides="1" tooltips="1" connect="1" arrows="1" fold="1" page="0" pageScale="1" pageWidth="827" pageHeight="1169" math="0" shadow="0">
      <root>
        <mxCell id="WIyWlLk6GJQsqaUBKTNV-0" />
        <mxCell id="WIyWlLk6GJQsqaUBKTNV-1" parent="WIyWlLk6GJQsqaUBKTNV-0" />
        <mxCell id="_7Anegimoyhtmtky0yuV-0" value="Hadsereg" style="whiteSpace=wrap;html=1;align=center;" parent="WIyWlLk6GJQsqaUBKTNV-1" vertex="1">
          <mxGeometry x="85" y="40" width="100" height="40" as="geometry" />
        </mxCell>
        <mxCell id="_7Anegimoyhtmtky0yuV-1" value="országNev" style="ellipse;whiteSpace=wrap;html=1;align=center;" parent="WIyWlLk6GJQsqaUBKTNV-1" vertex="1">
          <mxGeometry x="20" y="-40" width="100" height="40" as="geometry" />
        </mxCell>
        <mxCell id="_7Anegimoyhtmtky0yuV-3" value="létszám" style="ellipse;whiteSpace=wrap;html=1;align=center;" parent="WIyWlLk6GJQsqaUBKTNV-1" vertex="1">
          <mxGeometry x="240" y="-40" width="100" height="40" as="geometry" />
        </mxCell>
        <mxCell id="_7Anegimoyhtmtky0yuV-4" value="" style="fontSize=12;html=1;endArrow=ERone;endFill=1;rounded=0;entryX=0;entryY=0.5;entryDx=0;entryDy=0;edgeStyle=orthogonalEdgeStyle;exitX=1;exitY=0.5;exitDx=0;exitDy=0;" parent="WIyWlLk6GJQsqaUBKTNV-1" source="_7Anegimoyhtmtky0yuV-15" target="_7Anegimoyhtmtky0yuV-6" edge="1">
          <mxGeometry width="100" height="100" relative="1" as="geometry">
            <mxPoint x="-400" y="620" as="sourcePoint" />
            <mxPoint x="65" y="600" as="targetPoint" />
          </mxGeometry>
        </mxCell>
        <mxCell id="_7Anegimoyhtmtky0yuV-6" value="Szárazföldi erők" style="whiteSpace=wrap;html=1;align=center;" parent="WIyWlLk6GJQsqaUBKTNV-1" vertex="1">
          <mxGeometry x="20" y="520" width="100" height="40" as="geometry" />
        </mxCell>
        <mxCell id="_7Anegimoyhtmtky0yuV-7" value="Légierő" style="whiteSpace=wrap;html=1;align=center;" parent="WIyWlLk6GJQsqaUBKTNV-1" vertex="1">
          <mxGeometry x="20" y="360" width="100" height="40" as="geometry" />
        </mxCell>
        <mxCell id="_7Anegimoyhtmtky0yuV-9" value="" style="edgeStyle=orthogonalEdgeStyle;fontSize=12;html=1;endArrow=ERone;endFill=1;rounded=0;entryX=0;entryY=0.5;entryDx=0;entryDy=0;exitX=0.5;exitY=0;exitDx=0;exitDy=0;" parent="WIyWlLk6GJQsqaUBKTNV-1" source="_7Anegimoyhtmtky0yuV-15" target="_7Anegimoyhtmtky0yuV-7" edge="1">
          <mxGeometry width="100" height="100" relative="1" as="geometry">
            <mxPoint x="115" y="585" as="sourcePoint" />
            <mxPoint x="155" y="570" as="targetPoint" />
          </mxGeometry>
        </mxCell>
        <mxCell id="_7Anegimoyhtmtky0yuV-10" value="Tengerészet" style="whiteSpace=wrap;html=1;align=center;" parent="WIyWlLk6GJQsqaUBKTNV-1" vertex="1">
          <mxGeometry x="20" y="660" width="100" height="40" as="geometry" />
        </mxCell>
        <mxCell id="_7Anegimoyhtmtky0yuV-11" value="" style="edgeStyle=orthogonalEdgeStyle;fontSize=12;html=1;endArrow=ERone;endFill=1;rounded=0;entryX=0;entryY=0.5;entryDx=0;entryDy=0;exitX=0.5;exitY=1;exitDx=0;exitDy=0;" parent="WIyWlLk6GJQsqaUBKTNV-1" source="_7Anegimoyhtmtky0yuV-15" target="_7Anegimoyhtmtky0yuV-10" edge="1">
          <mxGeometry width="100" height="100" relative="1" as="geometry">
            <mxPoint x="15" y="585" as="sourcePoint" />
            <mxPoint x="155" y="570" as="targetPoint" />
          </mxGeometry>
        </mxCell>
        <mxCell id="_7Anegimoyhtmtky0yuV-12" value="" style="endArrow=none;html=1;rounded=0;exitX=0.5;exitY=1;exitDx=0;exitDy=0;entryX=0.282;entryY=0.026;entryDx=0;entryDy=0;entryPerimeter=0;" parent="WIyWlLk6GJQsqaUBKTNV-1" source="_7Anegimoyhtmtky0yuV-1" target="_7Anegimoyhtmtky0yuV-0" edge="1">
          <mxGeometry relative="1" as="geometry">
            <mxPoint x="90" y="220" as="sourcePoint" />
            <mxPoint x="250" y="220" as="targetPoint" />
          </mxGeometry>
        </mxCell>
        <mxCell id="_7Anegimoyhtmtky0yuV-13" value="" style="endArrow=none;html=1;rounded=0;exitX=0.5;exitY=1;exitDx=0;exitDy=0;entryX=0.792;entryY=0.002;entryDx=0;entryDy=0;entryPerimeter=0;" parent="WIyWlLk6GJQsqaUBKTNV-1" source="_7Anegimoyhtmtky0yuV-25" target="_7Anegimoyhtmtky0yuV-0" edge="1">
          <mxGeometry relative="1" as="geometry">
            <mxPoint x="130" as="sourcePoint" />
            <mxPoint x="250" y="220" as="targetPoint" />
          </mxGeometry>
        </mxCell>
        <mxCell id="_7Anegimoyhtmtky0yuV-14" value="" style="endArrow=none;html=1;rounded=0;entryX=0.5;entryY=1;entryDx=0;entryDy=0;exitX=1;exitY=0.25;exitDx=0;exitDy=0;" parent="WIyWlLk6GJQsqaUBKTNV-1" source="_7Anegimoyhtmtky0yuV-0" target="_7Anegimoyhtmtky0yuV-3" edge="1">
          <mxGeometry relative="1" as="geometry">
            <mxPoint x="180" y="40" as="sourcePoint" />
            <mxPoint x="250" y="220" as="targetPoint" />
          </mxGeometry>
        </mxCell>
        <mxCell id="_7Anegimoyhtmtky0yuV-15" value="Fegyvernem" style="shape=rhombus;perimeter=rhombusPerimeter;whiteSpace=wrap;html=1;align=center;" parent="WIyWlLk6GJQsqaUBKTNV-1" vertex="1">
          <mxGeometry x="-470" y="510" width="120" height="60" as="geometry" />
        </mxCell>
        <mxCell id="_7Anegimoyhtmtky0yuV-18" value="" style="edgeStyle=orthogonalEdgeStyle;fontSize=12;html=1;endArrow=ERone;endFill=1;rounded=0;entryX=0.5;entryY=1;entryDx=0;entryDy=0;exitX=0;exitY=0.5;exitDx=0;exitDy=0;" parent="WIyWlLk6GJQsqaUBKTNV-1" source="_7Anegimoyhtmtky0yuV-15" target="_7Anegimoyhtmtky0yuV-0" edge="1">
          <mxGeometry width="100" height="100" relative="1" as="geometry">
            <mxPoint x="-460" y="280" as="sourcePoint" />
            <mxPoint x="360" y="170" as="targetPoint" />
            <Array as="points">
              <mxPoint x="-570" y="540" />
              <mxPoint x="-570" y="150" />
              <mxPoint x="135" y="150" />
            </Array>
          </mxGeometry>
        </mxCell>
        <mxCell id="_7Anegimoyhtmtky0yuV-19" value="Főparancsnok" style="whiteSpace=wrap;html=1;align=center;" parent="WIyWlLk6GJQsqaUBKTNV-1" vertex="1">
          <mxGeometry x="920" y="40" width="100" height="40" as="geometry" />
        </mxCell>
        <mxCell id="_7Anegimoyhtmtky0yuV-20" value="irányítja" style="shape=rhombus;perimeter=rhombusPerimeter;whiteSpace=wrap;html=1;align=center;" parent="WIyWlLk6GJQsqaUBKTNV-1" vertex="1">
          <mxGeometry x="490" y="30" width="120" height="60" as="geometry" />
        </mxCell>
        <mxCell id="_7Anegimoyhtmtky0yuV-21" value="" style="edgeStyle=orthogonalEdgeStyle;fontSize=12;html=1;endArrow=ERone;endFill=1;rounded=0;exitX=0;exitY=0.5;exitDx=0;exitDy=0;entryX=1;entryY=0.5;entryDx=0;entryDy=0;" parent="WIyWlLk6GJQsqaUBKTNV-1" source="_7Anegimoyhtmtky0yuV-20" target="_7Anegimoyhtmtky0yuV-0" edge="1">
          <mxGeometry width="100" height="100" relative="1" as="geometry">
            <mxPoint x="360" y="370" as="sourcePoint" />
            <mxPoint x="460" y="270" as="targetPoint" />
          </mxGeometry>
        </mxCell>
        <mxCell id="_7Anegimoyhtmtky0yuV-22" value="" style="edgeStyle=orthogonalEdgeStyle;fontSize=12;html=1;endArrow=ERone;endFill=1;rounded=0;exitX=1;exitY=0.5;exitDx=0;exitDy=0;entryX=0;entryY=0.5;entryDx=0;entryDy=0;" parent="WIyWlLk6GJQsqaUBKTNV-1" source="_7Anegimoyhtmtky0yuV-20" target="_7Anegimoyhtmtky0yuV-19" edge="1">
          <mxGeometry width="100" height="100" relative="1" as="geometry">
            <mxPoint x="360" y="370" as="sourcePoint" />
            <mxPoint x="460" y="270" as="targetPoint" />
          </mxGeometry>
        </mxCell>
        <mxCell id="_7Anegimoyhtmtky0yuV-24" value="kinevezési időtartam" style="ellipse;whiteSpace=wrap;html=1;align=center;" parent="WIyWlLk6GJQsqaUBKTNV-1" vertex="1">
          <mxGeometry x="500" y="-40" width="100" height="40" as="geometry" />
        </mxCell>
        <mxCell id="_7Anegimoyhtmtky0yuV-25" value="hadseregID" style="ellipse;whiteSpace=wrap;html=1;align=center;fontStyle=4;" parent="WIyWlLk6GJQsqaUBKTNV-1" vertex="1">
          <mxGeometry x="130" y="-40" width="100" height="40" as="geometry" />
        </mxCell>
        <mxCell id="_7Anegimoyhtmtky0yuV-26" value="" style="endArrow=none;html=1;rounded=0;entryX=0.5;entryY=0;entryDx=0;entryDy=0;exitX=0.5;exitY=1;exitDx=0;exitDy=0;" parent="WIyWlLk6GJQsqaUBKTNV-1" source="_7Anegimoyhtmtky0yuV-24" target="_7Anegimoyhtmtky0yuV-20" edge="1">
          <mxGeometry relative="1" as="geometry">
            <mxPoint x="570" y="320" as="sourcePoint" />
            <mxPoint x="730" y="320" as="targetPoint" />
          </mxGeometry>
        </mxCell>
        <mxCell id="_7Anegimoyhtmtky0yuV-27" value="név" style="ellipse;whiteSpace=wrap;html=1;align=center;" parent="WIyWlLk6GJQsqaUBKTNV-1" vertex="1">
          <mxGeometry x="810" y="-40" width="100" height="40" as="geometry" />
        </mxCell>
        <mxCell id="_7Anegimoyhtmtky0yuV-28" value="életkor" style="ellipse;whiteSpace=wrap;html=1;align=center;" parent="WIyWlLk6GJQsqaUBKTNV-1" vertex="1">
          <mxGeometry x="920" y="-40" width="100" height="40" as="geometry" />
        </mxCell>
        <mxCell id="_7Anegimoyhtmtky0yuV-29" value="rang" style="ellipse;whiteSpace=wrap;html=1;align=center;" parent="WIyWlLk6GJQsqaUBKTNV-1" vertex="1">
          <mxGeometry x="1030" y="-40" width="100" height="40" as="geometry" />
        </mxCell>
        <mxCell id="_7Anegimoyhtmtky0yuV-30" value="" style="endArrow=none;html=1;rounded=0;entryX=0.5;entryY=1;entryDx=0;entryDy=0;exitX=0;exitY=0;exitDx=0;exitDy=0;" parent="WIyWlLk6GJQsqaUBKTNV-1" source="_7Anegimoyhtmtky0yuV-19" target="_7Anegimoyhtmtky0yuV-27" edge="1">
          <mxGeometry relative="1" as="geometry">
            <mxPoint x="570" y="210" as="sourcePoint" />
            <mxPoint x="730" y="210" as="targetPoint" />
          </mxGeometry>
        </mxCell>
        <mxCell id="_7Anegimoyhtmtky0yuV-31" value="" style="endArrow=none;html=1;rounded=0;entryX=0.5;entryY=1;entryDx=0;entryDy=0;exitX=0.5;exitY=0;exitDx=0;exitDy=0;" parent="WIyWlLk6GJQsqaUBKTNV-1" source="_7Anegimoyhtmtky0yuV-19" target="_7Anegimoyhtmtky0yuV-28" edge="1">
          <mxGeometry relative="1" as="geometry">
            <mxPoint x="570" y="210" as="sourcePoint" />
            <mxPoint x="730" y="210" as="targetPoint" />
          </mxGeometry>
        </mxCell>
        <mxCell id="_7Anegimoyhtmtky0yuV-32" value="" style="endArrow=none;html=1;rounded=0;entryX=0.5;entryY=1;entryDx=0;entryDy=0;exitX=1;exitY=0;exitDx=0;exitDy=0;" parent="WIyWlLk6GJQsqaUBKTNV-1" source="_7Anegimoyhtmtky0yuV-19" target="_7Anegimoyhtmtky0yuV-29" edge="1">
          <mxGeometry relative="1" as="geometry">
            <mxPoint x="570" y="210" as="sourcePoint" />
            <mxPoint x="730" y="210" as="targetPoint" />
          </mxGeometry>
        </mxCell>
        <mxCell id="_7Anegimoyhtmtky0yuV-33" value="szolgálati idő" style="ellipse;whiteSpace=wrap;html=1;align=center;" parent="WIyWlLk6GJQsqaUBKTNV-1" vertex="1">
          <mxGeometry x="1080" y="40" width="100" height="40" as="geometry" />
        </mxCell>
        <mxCell id="_7Anegimoyhtmtky0yuV-34" value="" style="endArrow=none;html=1;rounded=0;entryX=1;entryY=0.5;entryDx=0;entryDy=0;exitX=0;exitY=0.5;exitDx=0;exitDy=0;" parent="WIyWlLk6GJQsqaUBKTNV-1" source="_7Anegimoyhtmtky0yuV-33" target="_7Anegimoyhtmtky0yuV-19" edge="1">
          <mxGeometry relative="1" as="geometry">
            <mxPoint x="570" y="210" as="sourcePoint" />
            <mxPoint x="730" y="210" as="targetPoint" />
          </mxGeometry>
        </mxCell>
        <mxCell id="_7Anegimoyhtmtky0yuV-36" value="Tisztek" style="whiteSpace=wrap;html=1;align=center;" parent="WIyWlLk6GJQsqaUBKTNV-1" vertex="1">
          <mxGeometry x="920" y="280" width="100" height="40" as="geometry" />
        </mxCell>
        <mxCell id="_7Anegimoyhtmtky0yuV-39" value="szolgálati idő" style="ellipse;whiteSpace=wrap;html=1;align=center;" parent="WIyWlLk6GJQsqaUBKTNV-1" vertex="1">
          <mxGeometry x="1080" y="340" width="100" height="40" as="geometry" />
        </mxCell>
        <mxCell id="_7Anegimoyhtmtky0yuV-40" value="életkor" style="ellipse;whiteSpace=wrap;html=1;align=center;" parent="WIyWlLk6GJQsqaUBKTNV-1" vertex="1">
          <mxGeometry x="1080" y="280" width="100" height="40" as="geometry" />
        </mxCell>
        <mxCell id="_7Anegimoyhtmtky0yuV-41" value="rang" style="ellipse;whiteSpace=wrap;html=1;align=center;" parent="WIyWlLk6GJQsqaUBKTNV-1" vertex="1">
          <mxGeometry x="1080" y="210" width="100" height="40" as="geometry" />
        </mxCell>
        <mxCell id="_7Anegimoyhtmtky0yuV-42" value="név" style="ellipse;whiteSpace=wrap;html=1;align=center;" parent="WIyWlLk6GJQsqaUBKTNV-1" vertex="1">
          <mxGeometry x="1080" y="160" width="100" height="40" as="geometry" />
        </mxCell>
        <mxCell id="_7Anegimoyhtmtky0yuV-43" value="" style="endArrow=none;html=1;rounded=0;entryX=0;entryY=0.5;entryDx=0;entryDy=0;exitX=0.75;exitY=0;exitDx=0;exitDy=0;" parent="WIyWlLk6GJQsqaUBKTNV-1" source="_7Anegimoyhtmtky0yuV-36" target="_7Anegimoyhtmtky0yuV-42" edge="1">
          <mxGeometry relative="1" as="geometry">
            <mxPoint x="580" y="310" as="sourcePoint" />
            <mxPoint x="740" y="310" as="targetPoint" />
          </mxGeometry>
        </mxCell>
        <mxCell id="_7Anegimoyhtmtky0yuV-44" value="" style="endArrow=none;html=1;rounded=0;entryX=0;entryY=0.5;entryDx=0;entryDy=0;exitX=1;exitY=0;exitDx=0;exitDy=0;" parent="WIyWlLk6GJQsqaUBKTNV-1" source="_7Anegimoyhtmtky0yuV-36" target="_7Anegimoyhtmtky0yuV-41" edge="1">
          <mxGeometry relative="1" as="geometry">
            <mxPoint x="580" y="310" as="sourcePoint" />
            <mxPoint x="740" y="310" as="targetPoint" />
          </mxGeometry>
        </mxCell>
        <mxCell id="_7Anegimoyhtmtky0yuV-45" value="" style="endArrow=none;html=1;rounded=0;entryX=0;entryY=0.5;entryDx=0;entryDy=0;exitX=1;exitY=0.5;exitDx=0;exitDy=0;" parent="WIyWlLk6GJQsqaUBKTNV-1" source="_7Anegimoyhtmtky0yuV-36" target="_7Anegimoyhtmtky0yuV-40" edge="1">
          <mxGeometry relative="1" as="geometry">
            <mxPoint x="580" y="310" as="sourcePoint" />
            <mxPoint x="740" y="310" as="targetPoint" />
          </mxGeometry>
        </mxCell>
        <mxCell id="_7Anegimoyhtmtky0yuV-46" value="" style="endArrow=none;html=1;rounded=0;entryX=0;entryY=0.5;entryDx=0;entryDy=0;exitX=1;exitY=1;exitDx=0;exitDy=0;" parent="WIyWlLk6GJQsqaUBKTNV-1" source="_7Anegimoyhtmtky0yuV-36" target="_7Anegimoyhtmtky0yuV-39" edge="1">
          <mxGeometry relative="1" as="geometry">
            <mxPoint x="580" y="310" as="sourcePoint" />
            <mxPoint x="740" y="310" as="targetPoint" />
          </mxGeometry>
        </mxCell>
        <mxCell id="_7Anegimoyhtmtky0yuV-47" value="Parancsol" style="shape=rhombus;perimeter=rhombusPerimeter;whiteSpace=wrap;html=1;align=center;" parent="WIyWlLk6GJQsqaUBKTNV-1" vertex="1">
          <mxGeometry x="910" y="370" width="120" height="60" as="geometry" />
        </mxCell>
        <mxCell id="_7Anegimoyhtmtky0yuV-49" value="Katonák" style="whiteSpace=wrap;html=1;align=center;" parent="WIyWlLk6GJQsqaUBKTNV-1" vertex="1">
          <mxGeometry x="920" y="520" width="100" height="40" as="geometry" />
        </mxCell>
        <mxCell id="_7Anegimoyhtmtky0yuV-50" value="" style="edgeStyle=orthogonalEdgeStyle;fontSize=12;html=1;endArrow=ERmany;rounded=0;exitX=0.5;exitY=1;exitDx=0;exitDy=0;entryX=0.5;entryY=0;entryDx=0;entryDy=0;" parent="WIyWlLk6GJQsqaUBKTNV-1" source="_7Anegimoyhtmtky0yuV-47" target="_7Anegimoyhtmtky0yuV-49" edge="1">
          <mxGeometry width="100" height="100" relative="1" as="geometry">
            <mxPoint x="600" y="470" as="sourcePoint" />
            <mxPoint x="700" y="370" as="targetPoint" />
          </mxGeometry>
        </mxCell>
        <mxCell id="_7Anegimoyhtmtky0yuV-51" value="szolgálati idő" style="ellipse;whiteSpace=wrap;html=1;align=center;" parent="WIyWlLk6GJQsqaUBKTNV-1" vertex="1">
          <mxGeometry x="800" y="600" width="100" height="40" as="geometry" />
        </mxCell>
        <mxCell id="_7Anegimoyhtmtky0yuV-52" value="életkor" style="ellipse;whiteSpace=wrap;html=1;align=center;" parent="WIyWlLk6GJQsqaUBKTNV-1" vertex="1">
          <mxGeometry x="910" y="600" width="100" height="40" as="geometry" />
        </mxCell>
        <mxCell id="_7Anegimoyhtmtky0yuV-53" value="rang" style="ellipse;whiteSpace=wrap;html=1;align=center;" parent="WIyWlLk6GJQsqaUBKTNV-1" vertex="1">
          <mxGeometry x="1130" y="600" width="100" height="40" as="geometry" />
        </mxCell>
        <mxCell id="_7Anegimoyhtmtky0yuV-54" value="név" style="ellipse;whiteSpace=wrap;html=1;align=center;" parent="WIyWlLk6GJQsqaUBKTNV-1" vertex="1">
          <mxGeometry x="690" y="600" width="100" height="40" as="geometry" />
        </mxCell>
        <mxCell id="_7Anegimoyhtmtky0yuV-55" value="" style="endArrow=none;html=1;rounded=0;entryX=0;entryY=1;entryDx=0;entryDy=0;exitX=0.5;exitY=0;exitDx=0;exitDy=0;" parent="WIyWlLk6GJQsqaUBKTNV-1" source="_7Anegimoyhtmtky0yuV-54" target="_7Anegimoyhtmtky0yuV-49" edge="1">
          <mxGeometry relative="1" as="geometry">
            <mxPoint x="560" y="450" as="sourcePoint" />
            <mxPoint x="720" y="450" as="targetPoint" />
          </mxGeometry>
        </mxCell>
        <mxCell id="_7Anegimoyhtmtky0yuV-56" value="" style="endArrow=none;html=1;rounded=0;entryX=0.25;entryY=1;entryDx=0;entryDy=0;exitX=0.5;exitY=0;exitDx=0;exitDy=0;" parent="WIyWlLk6GJQsqaUBKTNV-1" source="_7Anegimoyhtmtky0yuV-51" target="_7Anegimoyhtmtky0yuV-49" edge="1">
          <mxGeometry relative="1" as="geometry">
            <mxPoint x="560" y="450" as="sourcePoint" />
            <mxPoint x="720" y="450" as="targetPoint" />
          </mxGeometry>
        </mxCell>
        <mxCell id="_7Anegimoyhtmtky0yuV-58" value="" style="endArrow=none;html=1;rounded=0;entryX=1;entryY=1;entryDx=0;entryDy=0;exitX=0.5;exitY=0;exitDx=0;exitDy=0;" parent="WIyWlLk6GJQsqaUBKTNV-1" source="_7Anegimoyhtmtky0yuV-53" target="_7Anegimoyhtmtky0yuV-49" edge="1">
          <mxGeometry relative="1" as="geometry">
            <mxPoint x="560" y="450" as="sourcePoint" />
            <mxPoint x="720" y="450" as="targetPoint" />
          </mxGeometry>
        </mxCell>
        <mxCell id="_7Anegimoyhtmtky0yuV-59" value="sorszám" style="ellipse;whiteSpace=wrap;html=1;align=center;fontStyle=4;" parent="WIyWlLk6GJQsqaUBKTNV-1" vertex="1">
          <mxGeometry x="1130" y="520" width="100" height="40" as="geometry" />
        </mxCell>
        <mxCell id="_7Anegimoyhtmtky0yuV-60" value="sorszám" style="ellipse;whiteSpace=wrap;html=1;align=center;fontStyle=4;" parent="WIyWlLk6GJQsqaUBKTNV-1" vertex="1">
          <mxGeometry x="1080" y="390" width="100" height="40" as="geometry" />
        </mxCell>
        <mxCell id="_7Anegimoyhtmtky0yuV-61" value="sorszám" style="ellipse;whiteSpace=wrap;html=1;align=center;fontStyle=4;" parent="WIyWlLk6GJQsqaUBKTNV-1" vertex="1">
          <mxGeometry x="1080" y="100" width="100" height="40" as="geometry" />
        </mxCell>
        <mxCell id="_7Anegimoyhtmtky0yuV-62" value="" style="endArrow=none;html=1;rounded=0;entryX=1;entryY=1;entryDx=0;entryDy=0;exitX=0;exitY=0.5;exitDx=0;exitDy=0;" parent="WIyWlLk6GJQsqaUBKTNV-1" source="_7Anegimoyhtmtky0yuV-61" target="_7Anegimoyhtmtky0yuV-19" edge="1">
          <mxGeometry relative="1" as="geometry">
            <mxPoint x="570" y="210" as="sourcePoint" />
            <mxPoint x="730" y="210" as="targetPoint" />
          </mxGeometry>
        </mxCell>
        <mxCell id="_7Anegimoyhtmtky0yuV-63" value="" style="endArrow=none;html=1;rounded=0;entryX=0;entryY=0.5;entryDx=0;entryDy=0;exitX=0.75;exitY=1;exitDx=0;exitDy=0;" parent="WIyWlLk6GJQsqaUBKTNV-1" source="_7Anegimoyhtmtky0yuV-36" target="_7Anegimoyhtmtky0yuV-60" edge="1">
          <mxGeometry relative="1" as="geometry">
            <mxPoint x="580" y="400" as="sourcePoint" />
            <mxPoint x="740" y="400" as="targetPoint" />
          </mxGeometry>
        </mxCell>
        <mxCell id="_7Anegimoyhtmtky0yuV-65" value="" style="endArrow=none;html=1;rounded=0;entryX=1;entryY=0.5;entryDx=0;entryDy=0;exitX=0;exitY=0.5;exitDx=0;exitDy=0;" parent="WIyWlLk6GJQsqaUBKTNV-1" source="_7Anegimoyhtmtky0yuV-59" target="_7Anegimoyhtmtky0yuV-49" edge="1">
          <mxGeometry relative="1" as="geometry">
            <mxPoint x="560" y="550" as="sourcePoint" />
            <mxPoint x="720" y="550" as="targetPoint" />
          </mxGeometry>
        </mxCell>
        <mxCell id="_7Anegimoyhtmtky0yuV-69" value="SzEID" style="ellipse;whiteSpace=wrap;html=1;align=center;fontStyle=4;" parent="WIyWlLk6GJQsqaUBKTNV-1" vertex="1">
          <mxGeometry x="-105" y="600" width="100" height="40" as="geometry" />
        </mxCell>
        <mxCell id="_7Anegimoyhtmtky0yuV-70" value="LegID" style="ellipse;whiteSpace=wrap;html=1;align=center;fontStyle=4;" parent="WIyWlLk6GJQsqaUBKTNV-1" vertex="1">
          <mxGeometry x="135" y="460" width="100" height="40" as="geometry" />
        </mxCell>
        <mxCell id="_7Anegimoyhtmtky0yuV-71" value="TID" style="ellipse;whiteSpace=wrap;html=1;align=center;fontStyle=4;" parent="WIyWlLk6GJQsqaUBKTNV-1" vertex="1">
          <mxGeometry x="-100" y="740" width="100" height="40" as="geometry" />
        </mxCell>
        <mxCell id="_7Anegimoyhtmtky0yuV-75" value="létszám" style="ellipse;whiteSpace=wrap;html=1;align=center;" parent="WIyWlLk6GJQsqaUBKTNV-1" vertex="1">
          <mxGeometry x="20" y="460" width="100" height="40" as="geometry" />
        </mxCell>
        <mxCell id="_7Anegimoyhtmtky0yuV-76" value="Szolgálat helye" style="ellipse;whiteSpace=wrap;html=1;align=center;" parent="WIyWlLk6GJQsqaUBKTNV-1" vertex="1">
          <mxGeometry x="1020" y="600" width="100" height="40" as="geometry" />
        </mxCell>
        <mxCell id="_7Anegimoyhtmtky0yuV-77" value="" style="endArrow=none;html=1;rounded=0;entryX=0.75;entryY=1;entryDx=0;entryDy=0;exitX=0.5;exitY=0;exitDx=0;exitDy=0;" parent="WIyWlLk6GJQsqaUBKTNV-1" source="_7Anegimoyhtmtky0yuV-76" target="_7Anegimoyhtmtky0yuV-49" edge="1">
          <mxGeometry relative="1" as="geometry">
            <mxPoint x="710" y="340" as="sourcePoint" />
            <mxPoint x="870" y="340" as="targetPoint" />
          </mxGeometry>
        </mxCell>
        <mxCell id="_7Anegimoyhtmtky0yuV-81" value="" style="endArrow=none;html=1;rounded=0;exitX=0.5;exitY=1;exitDx=0;exitDy=0;entryX=0;entryY=0.25;entryDx=0;entryDy=0;" parent="WIyWlLk6GJQsqaUBKTNV-1" target="_7Anegimoyhtmtky0yuV-0" edge="1">
          <mxGeometry relative="1" as="geometry">
            <mxPoint x="-40" y="-2.2737367544323206e-13" as="sourcePoint" />
            <mxPoint x="180" y="-10" as="targetPoint" />
          </mxGeometry>
        </mxCell>
        <mxCell id="_7Anegimoyhtmtky0yuV-82" value="Repülők száma" style="ellipse;whiteSpace=wrap;html=1;align=center;" parent="WIyWlLk6GJQsqaUBKTNV-1" vertex="1">
          <mxGeometry x="-95" y="460" width="100" height="40" as="geometry" />
        </mxCell>
        <mxCell id="_7Anegimoyhtmtky0yuV-83" value="Szföldi járművek száma" style="ellipse;whiteSpace=wrap;html=1;align=center;" parent="WIyWlLk6GJQsqaUBKTNV-1" vertex="1">
          <mxGeometry x="135" y="600" width="100" height="40" as="geometry" />
        </mxCell>
        <mxCell id="_7Anegimoyhtmtky0yuV-84" value="Hajók száma" style="ellipse;whiteSpace=wrap;html=1;align=center;" parent="WIyWlLk6GJQsqaUBKTNV-1" vertex="1">
          <mxGeometry x="140" y="740" width="100" height="40" as="geometry" />
        </mxCell>
        <mxCell id="_7Anegimoyhtmtky0yuV-85" value="" style="endArrow=none;html=1;rounded=0;exitX=0.5;exitY=0;exitDx=0;exitDy=0;entryX=0;entryY=1;entryDx=0;entryDy=0;" parent="WIyWlLk6GJQsqaUBKTNV-1" source="_7Anegimoyhtmtky0yuV-71" target="_7Anegimoyhtmtky0yuV-10" edge="1">
          <mxGeometry relative="1" as="geometry">
            <mxPoint x="90" y="590" as="sourcePoint" />
            <mxPoint x="250" y="590" as="targetPoint" />
          </mxGeometry>
        </mxCell>
        <mxCell id="_7Anegimoyhtmtky0yuV-86" value="" style="endArrow=none;html=1;rounded=0;exitX=0.5;exitY=1;exitDx=0;exitDy=0;entryX=0.5;entryY=0;entryDx=0;entryDy=0;" parent="WIyWlLk6GJQsqaUBKTNV-1" source="_7Anegimoyhtmtky0yuV-10" target="NoVv3WB7a6UVPyM5LkdZ-2" edge="1">
          <mxGeometry relative="1" as="geometry">
            <mxPoint x="90" y="590" as="sourcePoint" />
            <mxPoint x="70" y="740" as="targetPoint" />
          </mxGeometry>
        </mxCell>
        <mxCell id="_7Anegimoyhtmtky0yuV-87" value="" style="endArrow=none;html=1;rounded=0;exitX=1;exitY=1;exitDx=0;exitDy=0;entryX=0.5;entryY=0;entryDx=0;entryDy=0;" parent="WIyWlLk6GJQsqaUBKTNV-1" source="_7Anegimoyhtmtky0yuV-10" target="_7Anegimoyhtmtky0yuV-84" edge="1">
          <mxGeometry relative="1" as="geometry">
            <mxPoint x="90" y="590" as="sourcePoint" />
            <mxPoint x="250" y="590" as="targetPoint" />
          </mxGeometry>
        </mxCell>
        <mxCell id="_7Anegimoyhtmtky0yuV-88" value="" style="endArrow=none;html=1;rounded=0;entryX=0;entryY=1;entryDx=0;entryDy=0;exitX=0.5;exitY=0;exitDx=0;exitDy=0;" parent="WIyWlLk6GJQsqaUBKTNV-1" source="_7Anegimoyhtmtky0yuV-69" target="_7Anegimoyhtmtky0yuV-6" edge="1">
          <mxGeometry relative="1" as="geometry">
            <mxPoint x="-245" y="450" as="sourcePoint" />
            <mxPoint x="-85" y="450" as="targetPoint" />
          </mxGeometry>
        </mxCell>
        <mxCell id="_7Anegimoyhtmtky0yuV-89" value="" style="endArrow=none;html=1;rounded=0;entryX=0.5;entryY=1;entryDx=0;entryDy=0;exitX=0.5;exitY=0;exitDx=0;exitDy=0;" parent="WIyWlLk6GJQsqaUBKTNV-1" source="NoVv3WB7a6UVPyM5LkdZ-0" target="_7Anegimoyhtmtky0yuV-6" edge="1">
          <mxGeometry relative="1" as="geometry">
            <mxPoint x="65" y="600" as="sourcePoint" />
            <mxPoint x="-85" y="450" as="targetPoint" />
          </mxGeometry>
        </mxCell>
        <mxCell id="_7Anegimoyhtmtky0yuV-90" value="" style="endArrow=none;html=1;rounded=0;exitX=1;exitY=1;exitDx=0;exitDy=0;entryX=0.5;entryY=0;entryDx=0;entryDy=0;" parent="WIyWlLk6GJQsqaUBKTNV-1" source="_7Anegimoyhtmtky0yuV-6" target="_7Anegimoyhtmtky0yuV-83" edge="1">
          <mxGeometry relative="1" as="geometry">
            <mxPoint x="-245" y="450" as="sourcePoint" />
            <mxPoint x="-85" y="450" as="targetPoint" />
          </mxGeometry>
        </mxCell>
        <mxCell id="_7Anegimoyhtmtky0yuV-91" value="" style="endArrow=none;html=1;rounded=0;exitX=0;exitY=1;exitDx=0;exitDy=0;entryX=0.5;entryY=0;entryDx=0;entryDy=0;" parent="WIyWlLk6GJQsqaUBKTNV-1" source="_7Anegimoyhtmtky0yuV-7" target="_7Anegimoyhtmtky0yuV-82" edge="1">
          <mxGeometry relative="1" as="geometry">
            <mxPoint x="245" y="630" as="sourcePoint" />
            <mxPoint x="405" y="630" as="targetPoint" />
          </mxGeometry>
        </mxCell>
        <mxCell id="_7Anegimoyhtmtky0yuV-92" value="" style="endArrow=none;html=1;rounded=0;exitX=0.5;exitY=1;exitDx=0;exitDy=0;entryX=0.5;entryY=0;entryDx=0;entryDy=0;" parent="WIyWlLk6GJQsqaUBKTNV-1" source="_7Anegimoyhtmtky0yuV-7" target="_7Anegimoyhtmtky0yuV-75" edge="1">
          <mxGeometry relative="1" as="geometry">
            <mxPoint x="245" y="630" as="sourcePoint" />
            <mxPoint x="405" y="630" as="targetPoint" />
          </mxGeometry>
        </mxCell>
        <mxCell id="_7Anegimoyhtmtky0yuV-93" value="" style="endArrow=none;html=1;rounded=0;exitX=1;exitY=1;exitDx=0;exitDy=0;entryX=0.5;entryY=0;entryDx=0;entryDy=0;" parent="WIyWlLk6GJQsqaUBKTNV-1" source="_7Anegimoyhtmtky0yuV-7" target="_7Anegimoyhtmtky0yuV-70" edge="1">
          <mxGeometry relative="1" as="geometry">
            <mxPoint x="245" y="630" as="sourcePoint" />
            <mxPoint x="405" y="630" as="targetPoint" />
          </mxGeometry>
        </mxCell>
        <mxCell id="KOUa7sXaI2IiGi7LpSt7-0" value="Védekezés" style="ellipse;whiteSpace=wrap;html=1;align=center;" parent="WIyWlLk6GJQsqaUBKTNV-1" vertex="1">
          <mxGeometry x="-40" y="-120" width="100" height="40" as="geometry" />
        </mxCell>
        <mxCell id="KOUa7sXaI2IiGi7LpSt7-2" value="Támadás" style="ellipse;whiteSpace=wrap;html=1;align=center;" parent="WIyWlLk6GJQsqaUBKTNV-1" vertex="1">
          <mxGeometry x="-150" y="-120" width="100" height="40" as="geometry" />
        </mxCell>
        <mxCell id="KOUa7sXaI2IiGi7LpSt7-3" value="Ütőképesség" style="ellipse;whiteSpace=wrap;html=1;align=center;" parent="WIyWlLk6GJQsqaUBKTNV-1" vertex="1">
          <mxGeometry x="-260" y="-120" width="100" height="40" as="geometry" />
        </mxCell>
        <mxCell id="KOUa7sXaI2IiGi7LpSt7-4" value="" style="endArrow=none;html=1;rounded=0;exitX=0.5;exitY=1;exitDx=0;exitDy=0;entryX=0;entryY=0.5;entryDx=0;entryDy=0;" parent="WIyWlLk6GJQsqaUBKTNV-1" source="KOUa7sXaI2IiGi7LpSt7-3" target="eQqmdDJTWbnRL3NAJoAY-1" edge="1">
          <mxGeometry relative="1" as="geometry">
            <mxPoint x="50" y="10" as="sourcePoint" />
            <mxPoint x="-90" y="-20.000000000000227" as="targetPoint" />
          </mxGeometry>
        </mxCell>
        <mxCell id="KOUa7sXaI2IiGi7LpSt7-5" value="" style="endArrow=none;html=1;rounded=0;exitX=0.5;exitY=1;exitDx=0;exitDy=0;entryX=0.5;entryY=0;entryDx=0;entryDy=0;" parent="WIyWlLk6GJQsqaUBKTNV-1" source="KOUa7sXaI2IiGi7LpSt7-2" target="eQqmdDJTWbnRL3NAJoAY-1" edge="1">
          <mxGeometry relative="1" as="geometry">
            <mxPoint x="50" y="10" as="sourcePoint" />
            <mxPoint x="-40" y="-40.00000000000023" as="targetPoint" />
          </mxGeometry>
        </mxCell>
        <mxCell id="KOUa7sXaI2IiGi7LpSt7-6" value="" style="endArrow=none;html=1;rounded=0;exitX=0.5;exitY=1;exitDx=0;exitDy=0;entryX=1;entryY=0;entryDx=0;entryDy=0;" parent="WIyWlLk6GJQsqaUBKTNV-1" source="KOUa7sXaI2IiGi7LpSt7-0" target="eQqmdDJTWbnRL3NAJoAY-1" edge="1">
          <mxGeometry relative="1" as="geometry">
            <mxPoint x="50" y="10" as="sourcePoint" />
            <mxPoint x="-4.854479396179158" y="-34.22556786345126" as="targetPoint" />
          </mxGeometry>
        </mxCell>
        <mxCell id="KOUa7sXaI2IiGi7LpSt7-7" value="Szolgál" style="shape=rhombus;perimeter=rhombusPerimeter;whiteSpace=wrap;html=1;align=center;" parent="WIyWlLk6GJQsqaUBKTNV-1" vertex="1">
          <mxGeometry x="435" y="510" width="120" height="60" as="geometry" />
        </mxCell>
        <mxCell id="KOUa7sXaI2IiGi7LpSt7-10" value="" style="endArrow=none;html=1;rounded=0;entryX=0.5;entryY=1;entryDx=0;entryDy=0;exitX=0.5;exitY=0;exitDx=0;exitDy=0;" parent="WIyWlLk6GJQsqaUBKTNV-1" source="_7Anegimoyhtmtky0yuV-52" target="_7Anegimoyhtmtky0yuV-49" edge="1">
          <mxGeometry relative="1" as="geometry">
            <mxPoint x="820" y="530" as="sourcePoint" />
            <mxPoint x="980" y="530" as="targetPoint" />
          </mxGeometry>
        </mxCell>
        <mxCell id="KOUa7sXaI2IiGi7LpSt7-11" value="" style="edgeStyle=orthogonalEdgeStyle;fontSize=12;html=1;endArrow=ERmany;rounded=0;entryX=0;entryY=0.5;entryDx=0;entryDy=0;exitX=1;exitY=0.5;exitDx=0;exitDy=0;" parent="WIyWlLk6GJQsqaUBKTNV-1" source="KOUa7sXaI2IiGi7LpSt7-7" target="_7Anegimoyhtmtky0yuV-49" edge="1">
          <mxGeometry width="100" height="100" relative="1" as="geometry">
            <mxPoint x="360" y="490" as="sourcePoint" />
            <mxPoint x="460" y="390" as="targetPoint" />
          </mxGeometry>
        </mxCell>
        <mxCell id="KOUa7sXaI2IiGi7LpSt7-12" value="" style="edgeStyle=orthogonalEdgeStyle;fontSize=12;html=1;endArrow=ERone;endFill=1;rounded=0;exitX=0.5;exitY=0;exitDx=0;exitDy=0;entryX=1;entryY=0.5;entryDx=0;entryDy=0;" parent="WIyWlLk6GJQsqaUBKTNV-1" source="KOUa7sXaI2IiGi7LpSt7-7" target="_7Anegimoyhtmtky0yuV-7" edge="1">
          <mxGeometry width="100" height="100" relative="1" as="geometry">
            <mxPoint x="300" y="560" as="sourcePoint" />
            <mxPoint x="400" y="460" as="targetPoint" />
            <Array as="points">
              <mxPoint x="495" y="380" />
            </Array>
          </mxGeometry>
        </mxCell>
        <mxCell id="KOUa7sXaI2IiGi7LpSt7-13" value="" style="edgeStyle=orthogonalEdgeStyle;fontSize=12;html=1;endArrow=ERone;endFill=1;rounded=0;exitX=0;exitY=0.5;exitDx=0;exitDy=0;entryX=1;entryY=0.5;entryDx=0;entryDy=0;" parent="WIyWlLk6GJQsqaUBKTNV-1" source="KOUa7sXaI2IiGi7LpSt7-7" target="_7Anegimoyhtmtky0yuV-6" edge="1">
          <mxGeometry width="100" height="100" relative="1" as="geometry">
            <mxPoint x="300" y="560" as="sourcePoint" />
            <mxPoint x="185" y="550" as="targetPoint" />
            <Array as="points">
              <mxPoint x="165" y="540" />
              <mxPoint x="165" y="540" />
            </Array>
          </mxGeometry>
        </mxCell>
        <mxCell id="KOUa7sXaI2IiGi7LpSt7-14" value="" style="edgeStyle=orthogonalEdgeStyle;fontSize=12;html=1;endArrow=ERone;endFill=1;rounded=0;exitX=0.5;exitY=1;exitDx=0;exitDy=0;entryX=1;entryY=0.5;entryDx=0;entryDy=0;" parent="WIyWlLk6GJQsqaUBKTNV-1" source="KOUa7sXaI2IiGi7LpSt7-7" target="_7Anegimoyhtmtky0yuV-10" edge="1">
          <mxGeometry width="100" height="100" relative="1" as="geometry">
            <mxPoint x="300" y="560" as="sourcePoint" />
            <mxPoint x="400" y="460" as="targetPoint" />
            <Array as="points">
              <mxPoint x="495" y="680" />
            </Array>
          </mxGeometry>
        </mxCell>
        <mxCell id="eQqmdDJTWbnRL3NAJoAY-1" value="fejlettség" style="ellipse;whiteSpace=wrap;html=1;align=center;" parent="WIyWlLk6GJQsqaUBKTNV-1" vertex="1">
          <mxGeometry x="-90" y="-40" width="100" height="40" as="geometry" />
        </mxCell>
        <mxCell id="eQqmdDJTWbnRL3NAJoAY-3" value="" style="edgeStyle=orthogonalEdgeStyle;fontSize=12;html=1;endArrow=ERmany;rounded=0;exitX=0.5;exitY=0;exitDx=0;exitDy=0;entryX=0.5;entryY=1;entryDx=0;entryDy=0;" parent="WIyWlLk6GJQsqaUBKTNV-1" source="_7Anegimoyhtmtky0yuV-47" target="_7Anegimoyhtmtky0yuV-36" edge="1">
          <mxGeometry width="100" height="100" relative="1" as="geometry">
            <mxPoint x="1010" y="300" as="sourcePoint" />
            <mxPoint x="1110" y="200" as="targetPoint" />
          </mxGeometry>
        </mxCell>
        <mxCell id="eQqmdDJTWbnRL3NAJoAY-4" value="Parancsol" style="shape=rhombus;perimeter=rhombusPerimeter;whiteSpace=wrap;html=1;align=center;" parent="WIyWlLk6GJQsqaUBKTNV-1" vertex="1">
          <mxGeometry x="910" y="140" width="120" height="60" as="geometry" />
        </mxCell>
        <mxCell id="eQqmdDJTWbnRL3NAJoAY-5" value="" style="edgeStyle=orthogonalEdgeStyle;fontSize=12;html=1;endArrow=ERmany;rounded=0;exitX=0.5;exitY=1;exitDx=0;exitDy=0;entryX=0.5;entryY=0;entryDx=0;entryDy=0;" parent="WIyWlLk6GJQsqaUBKTNV-1" source="eQqmdDJTWbnRL3NAJoAY-4" target="_7Anegimoyhtmtky0yuV-36" edge="1">
          <mxGeometry width="100" height="100" relative="1" as="geometry">
            <mxPoint x="1010" y="300" as="sourcePoint" />
            <mxPoint x="1110" y="200" as="targetPoint" />
          </mxGeometry>
        </mxCell>
        <mxCell id="eQqmdDJTWbnRL3NAJoAY-6" value="" style="edgeStyle=orthogonalEdgeStyle;fontSize=12;html=1;endArrow=ERone;endFill=1;rounded=0;exitX=0.5;exitY=0;exitDx=0;exitDy=0;entryX=0.5;entryY=1;entryDx=0;entryDy=0;" parent="WIyWlLk6GJQsqaUBKTNV-1" source="eQqmdDJTWbnRL3NAJoAY-4" target="_7Anegimoyhtmtky0yuV-19" edge="1">
          <mxGeometry width="100" height="100" relative="1" as="geometry">
            <mxPoint x="1010" y="300" as="sourcePoint" />
            <mxPoint x="1110" y="200" as="targetPoint" />
          </mxGeometry>
        </mxCell>
        <mxCell id="NoVv3WB7a6UVPyM5LkdZ-0" value="létszám" style="ellipse;whiteSpace=wrap;html=1;align=center;" parent="WIyWlLk6GJQsqaUBKTNV-1" vertex="1">
          <mxGeometry x="20" y="600" width="100" height="40" as="geometry" />
        </mxCell>
        <mxCell id="NoVv3WB7a6UVPyM5LkdZ-2" value="létszám" style="ellipse;whiteSpace=wrap;html=1;align=center;" parent="WIyWlLk6GJQsqaUBKTNV-1" vertex="1">
          <mxGeometry x="20" y="740" width="100" height="40" as="geometry" />
        </mxCell>
        <mxCell id="NoVv3WB7a6UVPyM5LkdZ-3" value="Pozíció" style="ellipse;shape=doubleEllipse;margin=3;whiteSpace=wrap;html=1;align=center;" parent="WIyWlLk6GJQsqaUBKTNV-1" vertex="1">
          <mxGeometry x="-90" y="40" width="100" height="40" as="geometry" />
        </mxCell>
        <mxCell id="NoVv3WB7a6UVPyM5LkdZ-4" value="" style="endArrow=none;html=1;rounded=0;exitX=0;exitY=0.5;exitDx=0;exitDy=0;entryX=1;entryY=0.5;entryDx=0;entryDy=0;" parent="WIyWlLk6GJQsqaUBKTNV-1" source="_7Anegimoyhtmtky0yuV-0" target="NoVv3WB7a6UVPyM5LkdZ-3" edge="1">
          <mxGeometry relative="1" as="geometry">
            <mxPoint x="160" y="230" as="sourcePoint" />
            <mxPoint x="320" y="230" as="targetPoint" />
          </mxGeometry>
        </mxCell>
      </root>
    </mxGraphModel>
  </diagram>
</mxfile>
